/* XPM */
static char * raw_xpm[] = {
"16 24 5 1",
" 	c #CCCCCCCCCCCC",
".	c #000000000000",
"X	c #FFFFFFFFFFFF",
"o	c #CDCDB7B79E9E",
"O	c #DEDEC6C6ABAB",
" .............. ",
"..XXXXXXXXXXoo..",
".XXXXXXXXXXXXoo.",
".XXXXXXXXXXXXoo.",
".XXXXXXXXXXXXoo.",
".XXXXXXXXXXXXoo.",
".XXXXXXXXXXXXoo.",
".XXXXXXXXXXXXoo.",
".XXXXXXXXXXXXoo.",
".XXXXXXXXXXXXoo.",
".XXXXXXXXXXXXoo.",
".XXXXXXXXXXXXoo.",
".XXXXXXXXXXXXoo.",
".XXXXXXXXXXXXoo.",
".XXXXXXXXXXXXoo.",
".XXXXXXXXXXXXoo.",
".XXXXXXXXXXXXoo.",
".XXXXXXXXXXXXoo.",
".XXXXXXXXXXXXoo.",
".XXXXXXXXXXXXoo.",
".oXXXXXXXXXXOoo.",
".ooooooooooooOo.",
"..oooooooooooo..",
" .............. "};
